<?xml version="1.0" encoding="UTF-8"?>
<svg width="250px" height="49px" viewBox="0 0 250 49" version="1.1" xmlns="http://www.w3.org/2000/svg" xmlns:xlink="http://www.w3.org/1999/xlink">
    <!-- Generator: Sketch 41.2 (35397) - http://www.bohemiancoding.com/sketch -->
    <title>MDP LOGO Full</title>
    <desc>Created with Sketch.</desc>
    <defs></defs>
    <g id="MDP-SIGN-IN" stroke="none" stroke-width="1" fill="none" fill-rule="evenodd">
        <g id="FORGOT-Password" transform="translate(-515.000000, -37.000000)">
            <g id="MDP-LOGO-Full" transform="translate(515.000000, 36.000000)">
                <g id="MDP-LOGO-Group">
                    <g id="Logo-TAGLINE-Text" transform="translate(64.000000, 40.000000)" fill="#757575999">
                        <path d="M4.4863,3.2994 C4.4863,2.6544 4.3503,2.1654 4.0803,1.8314 C3.8093,1.4964 3.4253,1.3304 2.9313,1.3304 C2.4433,1.3304 2.0703,1.4964 1.8103,1.8314 C1.5503,2.1654 1.4203,2.6544 1.4203,3.2994 L1.4203,5.3504 C1.4203,6.0004 1.5503,6.4944 1.8123,6.8294 C2.0743,7.1664 2.4473,7.3334 2.9313,7.3334 C3.4293,7.3334 3.8143,7.1664 4.0823,6.8324 C4.3513,6.4974 4.4863,6.0024 4.4863,5.3504 L4.4863,3.2994 Z M5.5653,5.3504 C5.5653,6.2274 5.3263,6.9124 4.8493,7.4014 C4.3733,7.8914 3.7323,8.1374 2.9313,8.1374 C2.1413,8.1374 1.5133,7.8914 1.0463,7.4014 C0.5803,6.9124 0.3473,6.2274 0.3473,5.3504 L0.3473,3.3154 C0.3473,2.4404 0.5803,1.7544 1.0483,1.2604 C1.5163,0.7644 2.1443,0.5174 2.9313,0.5174 C3.7293,0.5174 4.3683,0.7644 4.8473,1.2604 C5.3263,1.7544 5.5653,2.4404 5.5653,3.3154 L5.5653,5.3504 Z" id="Fill-29"></path>
                        <polygon id="Fill-30" points="12.2929 8.0308 11.2139 8.0308 8.2659 2.5198 8.2329 2.5318 8.2329 8.0308 7.1479 8.0308 7.1479 0.6238 8.2329 0.6238 11.1819 6.1178 11.2139 6.1068 11.2139 0.6238 12.2929 0.6238"></polygon>
                        <polygon id="Fill-31" points="15.2324 7.2466 18.2664 7.2466 18.2664 8.0306 14.1484 8.0306 14.1484 0.6236 15.2324 0.6236"></polygon>
                        <polygon id="Fill-32" points="19.643 8.031 20.721 8.031 20.721 0.624 19.643 0.624"></polygon>
                        <polygon id="Fill-33" points="27.789 8.0308 26.711 8.0308 23.763 2.5198 23.73 2.5318 23.73 8.0308 22.646 8.0308 22.646 0.6238 23.73 0.6238 26.68 6.1178 26.711 6.1068 26.711 0.6238 27.789 0.6238"></polygon>
                        <polygon id="Fill-34" points="33.6152 4.5865 30.7302 4.5865 30.7302 7.2465 34.0732 7.2465 34.0732 8.0305 29.6452 8.0305 29.6452 0.6235 34.0422 0.6235 34.0422 1.4065 30.7302 1.4065 30.7302 3.8025 33.6152 3.8025"></polygon>
                        <path d="M39.2275,1.4068 L39.2275,7.2468 L40.2435,7.2468 C40.7885,7.2468 41.2165,7.0238 41.5325,6.5788 C41.8475,6.1338 42.0055,5.5578 42.0055,4.8518 L42.0055,3.7868 C42.0055,3.0868 41.8475,2.5148 41.5325,2.0708 C41.2165,1.6278 40.7885,1.4068 40.2435,1.4068 L39.2275,1.4068 Z M38.1435,8.0308 L38.1435,0.6238 L40.2815,0.6238 C41.1055,0.6238 41.7795,0.9198 42.3015,1.5128 C42.8225,2.1058 43.0845,2.8698 43.0845,3.8028 L43.0845,4.8558 C43.0845,5.7918 42.8225,6.5548 42.3015,7.1448 C41.7795,7.7348 41.1055,8.0308 40.2815,8.0308 L38.1435,8.0308 Z" id="Fill-35"></path>
                        <polygon id="Fill-36" points="44.723 8.031 45.801 8.031 45.801 0.624 44.723 0.624"></polygon>
                        <path d="M48.8105,4.0523 L50.0915,4.0523 C50.5295,4.0523 50.8535,3.9403 51.0625,3.7133 C51.2695,3.4883 51.3735,3.1663 51.3735,2.7513 C51.3735,2.3263 51.2715,1.9973 51.0695,1.7643 C50.8675,1.5303 50.5585,1.4113 50.1455,1.4113 L48.8105,1.4113 L48.8105,4.0523 Z M48.8105,4.8353 L48.8105,8.0313 L47.7255,8.0313 L47.7255,0.6283 L50.1455,0.6283 C50.8825,0.6283 51.4525,0.8103 51.8555,1.1723 C52.2575,1.5343 52.4585,2.0553 52.4585,2.7323 C52.4585,3.1193 52.3645,3.4573 52.1775,3.7443 C51.9925,4.0333 51.7205,4.2583 51.3695,4.4213 C51.7575,4.5463 52.0385,4.7593 52.2105,5.0603 C52.3825,5.3603 52.4685,5.7313 52.4685,6.1713 L52.4685,6.8193 C52.4685,7.0453 52.4935,7.2573 52.5415,7.4513 C52.5895,7.6483 52.6715,7.8013 52.7895,7.9133 L52.7895,8.0313 L51.6735,8.0313 C51.5515,7.9173 51.4745,7.7493 51.4415,7.5233 C51.4075,7.2973 51.3905,7.0593 51.3905,6.8073 L51.3905,6.1803 C51.3905,5.7663 51.2915,5.4383 51.0935,5.1973 C50.8955,4.9553 50.6245,4.8353 50.2795,4.8353 L48.8105,4.8353 Z" id="Fill-37"></path>
                        <polygon id="Fill-38" points="58.2402 4.5865 55.3562 4.5865 55.3562 7.2465 58.6992 7.2465 58.6992 8.0305 54.2712 8.0305 54.2712 0.6235 58.6682 0.6235 58.6682 1.4065 55.3562 1.4065 55.3562 3.8025 58.2402 3.8025"></polygon>
                        <path d="M64.6465,5.7818 L64.6635,5.8118 C64.6595,6.5518 64.4535,7.1238 64.0425,7.5288 C63.6345,7.9348 63.0545,8.1378 62.3065,8.1378 C61.5445,8.1378 60.9365,7.8928 60.4805,7.4048 C60.0255,6.9158 59.7965,6.2348 59.7965,5.3598 L59.7965,3.3048 C59.7965,2.4298 60.0235,1.7468 60.4725,1.2548 C60.9225,0.7628 61.5235,0.5168 62.2755,0.5168 C63.0375,0.5168 63.6235,0.7158 64.0335,1.1118 C64.4415,1.5088 64.6525,2.0888 64.6635,2.8518 L64.6465,2.8828 L63.6215,2.8828 C63.6115,2.3388 63.5005,1.9398 63.2855,1.6838 C63.0715,1.4288 62.7345,1.2998 62.2755,1.2998 C61.8305,1.2998 61.4845,1.4718 61.2395,1.8148 C60.9935,2.1568 60.8705,2.6468 60.8705,3.2818 L60.8705,5.3558 C60.8705,6.0008 60.9965,6.4958 61.2475,6.8388 C61.4985,7.1818 61.8515,7.3538 62.3065,7.3538 C62.7555,7.3538 63.0845,7.2288 63.2925,6.9788 C63.5015,6.7308 63.6095,6.3308 63.6155,5.7818 L64.6465,5.7818 Z" id="Fill-39"></path>
                        <polygon id="Fill-40" points="70.5244 1.4068 68.5274 1.4068 68.5274 8.0308 67.4434 8.0308 67.4434 1.4068 65.4574 1.4068 65.4574 0.6238 70.5244 0.6238"></polygon>
                        <polygon id="Fill-41" points="78.4931 4.7339 75.6041 4.7339 75.6041 8.0309 74.5201 8.0309 74.5201 0.6239 78.9591 0.6239 78.9591 1.4069 75.6041 1.4069 75.6041 3.9499 78.4931 3.9499"></polygon>
                        <path d="M85.1347,0.6236 L85.1347,5.7566 C85.1347,6.5216 84.9047,7.1106 84.4437,7.5216 C83.9827,7.9326 83.3797,8.1376 82.6357,8.1376 C81.9037,8.1376 81.3097,7.9326 80.8577,7.5216 C80.4047,7.1106 80.1787,6.5216 80.1787,5.7566 L80.1787,0.6236 L81.2527,0.6236 L81.2527,5.7566 C81.2527,6.2856 81.3767,6.6846 81.6257,6.9516 C81.8747,7.2196 82.2117,7.3546 82.6357,7.3546 C83.0757,7.3546 83.4247,7.2256 83.6777,6.9676 C83.9307,6.7096 84.0567,6.3056 84.0567,5.7566 L84.0567,0.6236 L85.1347,0.6236 Z" id="Fill-42"></path>
                        <polygon id="Fill-43" points="91.9863 8.0308 90.9073 8.0308 87.9583 2.5198 87.9273 2.5318 87.9273 8.0308 86.8413 8.0308 86.8413 0.6238 87.9273 0.6238 90.8753 6.1178 90.9073 6.1068 90.9073 0.6238 91.9863 0.6238"></polygon>
                        <path d="M94.9258,1.4068 L94.9258,7.2468 L95.9418,7.2468 C96.4868,7.2468 96.9158,7.0238 97.2308,6.5788 C97.5458,6.1338 97.7028,5.5578 97.7028,4.8518 L97.7028,3.7868 C97.7028,3.0868 97.5458,2.5148 97.2308,2.0708 C96.9158,1.6278 96.4868,1.4068 95.9418,1.4068 L94.9258,1.4068 Z M93.8418,8.0308 L93.8418,0.6238 L95.9788,0.6238 C96.8038,0.6238 97.4788,0.9198 97.9998,1.5128 C98.5218,2.1058 98.7828,2.8698 98.7828,3.8028 L98.7828,4.8558 C98.7828,5.7918 98.5218,6.5548 97.9998,7.1448 C97.4788,7.7348 96.8038,8.0308 95.9788,8.0308 L93.8418,8.0308 Z" id="Fill-44"></path>
                        <polygon id="Fill-45" points="100.42 8.031 101.499 8.031 101.499 0.624 100.42 0.624"></polygon>
                        <polygon id="Fill-46" points="108.5674 8.0308 107.4884 8.0308 104.5414 2.5198 104.5074 2.5318 104.5074 8.0308 103.4234 8.0308 103.4234 0.6238 104.5074 0.6238 107.4574 6.1178 107.4884 6.1068 107.4884 0.6238 108.5674 0.6238"></polygon>
                        <path d="M115.3379,6.9771 C115.1579,7.2761 114.8699,7.5431 114.4699,7.7811 C114.0689,8.0181 113.5579,8.1371 112.9349,8.1371 C112.1189,8.1371 111.4629,7.9011 110.9629,7.4301 C110.4649,6.9581 110.2169,6.2871 110.2169,5.4151 L110.2169,3.2181 C110.2169,2.3601 110.4529,1.6961 110.9269,1.2231 C111.3999,0.7511 112.0279,0.5171 112.8119,0.5171 C113.6059,0.5171 114.2129,0.7081 114.6329,1.0881 C115.0529,1.4691 115.2779,2.0051 115.3069,2.6941 L115.2939,2.7251 L114.2719,2.7251 C114.2499,2.2591 114.1259,1.9071 113.8889,1.6641 C113.6519,1.4201 113.2979,1.2991 112.8279,1.2991 C112.3549,1.2991 111.9799,1.4611 111.7049,1.7871 C111.4319,2.1111 111.2949,2.5831 111.2949,3.2011 L111.2949,5.4131 C111.2949,6.0431 111.4419,6.5251 111.7359,6.8561 C112.0289,7.1881 112.4289,7.3541 112.9349,7.3541 C113.3049,7.3541 113.5919,7.2931 113.7979,7.1721 C114.0009,7.0531 114.1539,6.9001 114.2529,6.7131 L114.2529,5.0291 L112.9239,5.0291 L112.9239,4.2801 L115.3379,4.2801 L115.3379,6.9771 Z" id="Fill-47"></path>
                        <polygon id="Fill-48" points="121.2509 0.6236 123.0659 6.6666 123.0999 6.6666 124.9199 0.6236 126.3199 0.6236 126.3199 8.0306 125.2449 8.0306 125.2449 5.1856 125.3429 2.3386 125.3109 2.3326 123.4409 8.0306 122.7249 8.0306 120.8609 2.3386 120.8289 2.3436 120.9309 5.1856 120.9309 8.0306 119.8579 8.0306 119.8579 0.6236"></polygon>
                        <path d="M129.5478,5.3384 L131.5298,5.3384 L130.5578,2.1044 L130.5268,2.1044 L129.5478,5.3384 Z M131.7758,6.1574 L129.2988,6.1574 L128.7308,8.0304 L127.6308,8.0304 L130.0238,0.6234 L131.0688,0.6234 L133.4428,8.0304 L132.3418,8.0304 L131.7758,6.1574 Z" id="Fill-49"></path>
                        <polygon id="Fill-50" points="139.7959 8.0308 138.7159 8.0308 135.7679 2.5198 135.7369 2.5318 135.7369 8.0308 134.6509 8.0308 134.6509 0.6238 135.7369 0.6238 138.6849 6.1178 138.7159 6.1068 138.7159 0.6238 139.7959 0.6238"></polygon>
                        <path d="M143.0566,5.3384 L145.0376,5.3384 L144.0686,2.1044 L144.0346,2.1044 L143.0566,5.3384 Z M145.2836,6.1574 L142.8066,6.1574 L142.2406,8.0304 L141.1406,8.0304 L143.5336,0.6234 L144.5796,0.6234 L146.9506,8.0304 L145.8506,8.0304 L145.2836,6.1574 Z" id="Fill-51"></path>
                        <path d="M153.0146,6.9771 C152.8356,7.2761 152.5466,7.5431 152.1486,7.7811 C151.7466,8.0181 151.2346,8.1371 150.6126,8.1371 C149.7966,8.1371 149.1386,7.9011 148.6406,7.4301 C148.1406,6.9581 147.8936,6.2871 147.8936,5.4151 L147.8936,3.2181 C147.8936,2.3601 148.1286,1.6961 148.6026,1.2231 C149.0766,0.7511 149.7046,0.5171 150.4886,0.5171 C151.2836,0.5171 151.8896,0.7081 152.3086,1.0881 C152.7286,1.4691 152.9546,2.0051 152.9826,2.6941 L152.9716,2.7251 L151.9466,2.7251 C151.9296,2.2591 151.8016,1.9071 151.5666,1.6641 C151.3286,1.4201 150.9756,1.2991 150.5046,1.2991 C150.0326,1.2991 149.6586,1.4611 149.3816,1.7871 C149.1076,2.1111 148.9706,2.5831 148.9706,3.2011 L148.9706,5.4131 C148.9706,6.0431 149.1186,6.5251 149.4126,6.8561 C149.7066,7.1881 150.1056,7.3541 150.6126,7.3541 C150.9826,7.3541 151.2706,7.2931 151.4746,7.1721 C151.6776,7.0531 151.8306,6.9001 151.9316,6.7131 L151.9316,5.0291 L150.6006,5.0291 L150.6006,4.2801 L153.0146,4.2801 L153.0146,6.9771 Z" id="Fill-52"></path>
                        <polygon id="Fill-53" points="158.8066 4.5865 155.9226 4.5865 155.9226 7.2465 159.2676 7.2465 159.2676 8.0305 154.8386 8.0305 154.8386 0.6235 159.2356 0.6235 159.2356 1.4065 155.9226 1.4065 155.9226 3.8025 158.8066 3.8025"></polygon>
                        <polygon id="Fill-54" points="161.9843 0.6236 163.7993 6.6666 163.8303 6.6666 165.6533 0.6236 167.0513 0.6236 167.0513 8.0306 165.9783 8.0306 165.9783 5.1856 166.0743 2.3386 166.0433 2.3326 164.1733 8.0306 163.4573 8.0306 161.5933 2.3386 161.5593 2.3436 161.6623 5.1856 161.6623 8.0306 160.5893 8.0306 160.5893 0.6236"></polygon>
                        <polygon id="Fill-55" points="172.8447 4.5865 169.9597 4.5865 169.9597 7.2465 173.3047 7.2465 173.3047 8.0305 168.8757 8.0305 168.8757 0.6235 173.2737 0.6235 173.2737 1.4065 169.9597 1.4065 169.9597 3.8025 172.8447 3.8025"></polygon>
                        <polygon id="Fill-56" points="179.7959 8.0308 178.7169 8.0308 175.7689 2.5198 175.7359 2.5318 175.7359 8.0308 174.6539 8.0308 174.6539 0.6238 175.7359 0.6238 178.6869 6.1178 178.7169 6.1068 178.7169 0.6238 179.7959 0.6238"></polygon>
                        <polygon id="Fill-57" points="186 1.4068 184.002 1.4068 184.002 8.0308 182.918 8.0308 182.918 1.4068 180.933 1.4068 180.933 0.6238 186 0.6238"></polygon>
                    </g>
                    <g id="MDP-Logo-Main">
                        <g id="MDP-Logo-•-Letter-&quot;n" transform="translate(230.000000, 10.000000)" fill="#A8D30D">
                            <path d="M8.3486,8.9478 L1.0306,8.9478 L1.0356,21.0478 L7.8946,21.0478 L7.8726,12.6278 C7.8836,11.1388 8.0586,9.9198 8.3486,8.9478" id="Fill-15"></path>
                            <path d="M19.4248,6.2535 C18.8338,3.1275 16.9278,0.8825 13.3178,0.8825 C10.8348,0.8825 8.6918,1.8445 7.2728,4.3295 L7.1918,4.3295 L6.9088,1.3225 L0.8908,1.3225 C0.9468,3.0085 1.0428,5.1235 1.0298,7.5175 L8.9958,7.5175 C9.4938,6.7505 10.1188,6.3345 10.8208,6.3345 C11.9808,6.3345 12.4518,7.1355 12.6648,8.2585 C12.7908,8.9395 12.8478,9.6615 12.8538,10.3435 L12.8668,21.0475 L19.7238,21.0475 L19.7378,9.6235 C19.7238,8.6995 19.5918,7.1355 19.4248,6.2535" id="Fill-17"></path>
                        </g>
                        <path d="M227.3164,18.9478 L220.4974,18.9478 L220.4794,20.1028 C220.4704,24.7548 219.0624,25.9988 217.8224,25.9988 C216.6184,25.9988 215.6754,25.0358 215.3264,23.1898 C214.7854,20.3038 216.0604,16.0138 219.2684,16.0138 C219.5874,16.0138 220.0794,16.0538 220.5344,16.1348 L220.5124,17.5168 L227.3374,17.5168 L227.4094,11.9638 C225.5374,11.4048 222.7514,10.8828 220.1884,10.8828 C210.0034,10.8828 207.2034,17.9358 208.4324,24.4728 C209.2404,28.7628 212.2764,31.4908 215.8474,31.4908 C217.9314,31.4908 220.2074,30.5658 221.3354,27.6388 L221.4184,27.6388 C221.5894,28.7628 221.7284,29.9248 221.8984,31.0478 L228.1564,31.0478 C227.5874,28.4828 227.2724,24.4318 227.2724,22.3078 L227.3164,18.9478 Z" id="MDP-Logo-•-Letter-&quot;a&quot;" fill="#A8D30D"></path>
                        <polygon id="MDP-Logo-•-Letter-&quot;l&quot;" fill="#A8D30D" points="198.8037 31.0474 198.8997 2.5804 205.7157 2.5804 205.6207 31.0474"></polygon>
                        <path d="M197.0937,13.3091 C196.4477,9.8881 194.4157,7.3971 191.6387,5.8821 C188.6897,4.2191 185.0957,3.8271 182.2137,3.8271 C178.7917,3.8271 175.2867,4.1701 173.1527,4.7561 L173.1567,17.5171 L181.3387,17.5171 L181.3387,10.6211 C181.8127,10.5241 182.6717,10.4261 183.8487,10.4261 C186.1397,10.4261 188.3507,11.2581 188.8837,14.0881 C189.3877,16.7801 187.4467,19.1721 183.8317,19.1721 C182.6077,19.1721 181.9087,19.0751 181.2997,18.9761 L181.2997,18.9481 L173.1567,18.9481 L173.1637,35.8841 L181.2737,35.8841 L181.2967,25.7191 C181.8947,25.7681 182.9027,25.9141 184.0277,25.9141 C188.1787,25.9141 191.8557,24.9381 194.2047,22.8851 C196.6037,20.8321 197.9127,17.6571 197.0937,13.3091" id="MDP-Logo-•-Letter-&quot;P&quot;" fill="#A8D30D"></path>
                        <path d="M165.9111,5.7086 L165.9271,11.9876 L169.9351,11.9876 L169.9041,17.5176 L165.8631,17.5176 L165.8001,21.9476 C165.8001,22.5886 165.8281,23.5906 165.9351,24.1506 C166.1001,25.0356 166.5871,25.7146 167.8321,25.7146 C168.3131,25.7146 168.8761,25.7146 169.4201,25.6356 L169.5491,31.0066 C168.7701,31.3266 167.1951,31.4886 165.8731,31.4886 C162.1421,31.4886 159.9571,29.6826 159.4591,27.0376 C159.2641,25.9946 159.1891,24.9546 159.1751,23.3876 L159.4941,17.7736 L156.4761,16.8916 L157.0591,11.7416 L159.2701,11.9876 L159.2481,7.5926 L165.9111,5.7086 Z" id="MDP-Logo-•-Letter-&quot;t&quot;" fill="#28A8E8"></path>
                        <path d="M156.8633,30.2115 C155.6293,30.8935 152.9223,31.4885 150.7173,31.4885 C145.9453,31.4885 140.3893,27.8605 140.5293,20.6175 C140.6333,15.4615 144.9203,10.8795 151.4483,10.8795 C153.0533,10.8795 154.4223,11.0335 155.4923,11.3935 L154.0763,16.3405 C153.3363,16.1995 153.1083,16.1435 152.2853,16.1255 C149.0923,16.0535 146.6683,18.2915 146.6683,20.9635 C146.6683,24.7675 150.0123,26.0375 151.6973,26.0375 C153.2203,26.0375 154.2413,25.7145 155.1683,25.3145 L156.8633,30.2115 Z" id="MDP-Logo-•-Letter-&quot;c&quot;" fill="#28A8E8"></path>
                        <path d="M139.0547,17.1744 C138.2887,13.1254 134.6637,10.8794 130.5717,10.8794 C125.4297,10.8794 122.3167,13.7574 121.2497,17.5174 L127.7107,17.5174 C128.1387,16.6084 129.0527,15.8124 130.6567,15.8124 C131.7807,15.8124 132.5337,16.4124 132.6637,17.0944 L132.6697,17.1334 C132.8847,18.2674 131.7707,18.8584 128.4237,18.9244 C128.3337,18.9274 128.1247,18.9474 128.1017,18.9474 L120.9577,18.9474 C120.7757,20.2404 120.8007,21.5914 121.0537,22.9474 C122.0877,28.4414 125.8307,31.4884 131.6057,31.4884 C133.6097,31.4884 136.6447,31.2084 139.0507,29.9244 L137.7577,24.9944 C136.1857,25.7944 134.3787,26.1964 132.3717,26.1964 C130.8097,26.1964 129.5367,25.8344 128.6527,25.1934 C128.1857,24.8334 127.8497,24.3124 127.6857,23.8714 C135.8677,24.1094 139.9837,22.1084 139.0547,17.1744" id="MDP-Logo-•-Letter-&quot;e&quot;" fill="#28A8E8"></path>
                        <path d="M118.9785,10.8795 C116.2505,10.8795 114.2635,12.6825 113.3035,15.2495 L113.3035,11.3205 L106.0475,11.3205 C106.1225,12.4645 106.2925,14.5645 106.3985,16.7915 L112.7025,16.7915 L112.2695,18.1895 L106.4545,18.1895 C106.4695,18.6995 106.4825,19.2035 106.4865,19.6995 L106.4565,31.0475 L114.3535,31.0475 L114.3295,24.3125 C114.3305,20.7035 115.0965,17.5375 119.1465,17.5375 L120.0305,17.5375 L120.1475,10.9205 C119.7405,10.8795 119.3785,10.8795 118.9785,10.8795" id="MDP-Logo-•-1st-Letter-&quot;r&quot;" fill="#28A8E8"></path>
                        <g id="MDP-Logo-•-Letter-&quot;i&quot;" transform="translate(95.000000, 0.000000)">
                            <path d="M8.5752,4.9752 C8.5752,7.1722 6.7932,8.9522 4.6012,8.9522 C2.4042,8.9522 0.6262,7.1722 0.6262,4.9752 C0.6262,2.7802 2.4042,0.9992 4.6012,0.9992 C6.7932,0.9992 8.5752,2.7802 8.5752,4.9752" id="Fill-19" fill="#A8D30D"></path>
                            <polygon id="Fill-23" fill="#28A8E8" points="1.152 16.792 8.105 16.792 8.105 11.321 1.152 11.321"></polygon>
                            <polygon id="Fill-25" fill="#28A8E8" points="1.1523 18.19 1.1393 31.047 8.1053 31.047 8.1053 18.19"></polygon>
                        </g>
                        <path d="M81.8984,27.6529 L69.1574,27.6529 L73.4954,20.8139 L86.4504,20.8139 L81.8984,27.6529 Z M93.1324,18.1899 L74.1644,18.1899 L70.0314,11.1689 L81.7364,11.1689 L85.9294,16.7919 L93.0634,16.7919 C92.6274,11.8929 90.4784,8.4689 87.3354,6.3029 C84.1374,4.1099 80.2744,3.1089 74.1194,3.1089 C70.3024,3.1089 66.6304,3.3459 63.8614,3.7759 L63.8614,35.3109 C65.5324,35.5969 68.2964,35.8839 72.4494,35.8839 C78.7474,35.8839 83.9964,34.6429 87.5254,31.8779 C90.6734,29.4439 93.1544,25.1979 93.1544,18.6629 C93.1544,18.4969 93.1364,18.3499 93.1324,18.1899 L93.1324,18.1899 Z" id="MDP-Logo-•-Letter-&quot;D&quot;" fill="#28A8E8"></path>
                        <path d="M52.8896,18.192 L51.6976,24.233 C51.2086,26.824 51.0456,28.291 50.8306,29.758 L50.7336,29.758 C50.3196,28.339 49.7526,26.629 49.0186,24.282 L47.1776,18.192 L38.7366,18.192 L46.1476,36.309 C46.3596,36.895 46.4046,37.139 46.2326,37.533 C45.7366,38.802 44.7536,40.075 43.3336,41.1 C42.2206,41.931 40.8146,42.517 39.6976,42.813 L42.9086,50 C44.4746,49.754 47.7656,48.534 50.1036,45.894 C52.7396,43.008 54.9826,38.558 57.1056,31.666 L61.2676,18.192 L52.8896,18.192 Z" id="MDP-Logo-•-Letter-&quot;y&quot;" fill="#EC1F27"></path>
                        <path d="M28.2617,36.5142 L27.8987,24.7302 C27.7767,20.9662 27.6817,16.5672 27.7267,11.0902 L27.5797,11.0902 C26.5057,15.7842 25.2597,20.5752 24.1597,24.3382 L20.9457,35.8292 L14.3907,35.8292 L11.6037,24.3872 C10.7367,20.8202 9.6187,15.9312 8.5627,11.0902 L8.4647,11.0902 C8.3267,16.0772 8.2817,21.0152 8.1467,24.7302 L7.6287,36.5142 L-0.0003,36.5142 L1.9617,3.5592 L13.2547,3.5592 L15.4397,13.3382 C16.1837,16.5162 17.2887,20.5752 18.0817,24.7782 L18.2777,24.7782 C18.9507,20.5752 20.0107,16.3232 20.8487,13.2412 L23.3757,3.5592 L34.7207,3.5592 L36.3747,36.5142 L28.2617,36.5142 Z" id="MDP-Logo-•-Letter-&quot;M&quot;" fill="#EC1F27"></path>
                    </g>
                </g>
            </g>
        </g>
    </g>
</svg>